<svg xmlns="http://www.w3.org/2000/svg" viewBox="0 0 1366 663"><defs><style>.cls-1{fill:#b7e4c7;opacity:0.55;}.cls-2{fill:#fff;}</style></defs><title>Recurso 59</title><g id="Capa_2" data-name="Capa 2"><g id="fondo"><rect id="fondo-2" data-name="fondo" class="cls-1" width="1366" height="663"/><path id="estrella" class="cls-2" d="M286.08,322.93s2-5.67,2.61-5.38,2.31,5.38,2.31,5.38,5.08.95,4.93,1.42-4.35,2.51-4.35,2.51-1.73,5.6-2.31,6.07-2.76-5.78-2.76-5.78-3.91-.29-4.78-1S286.08,322.93,286.08,322.93Z"/><path id="estrella-2" data-name="estrella" class="cls-2" d="M554.81,135.35s3.05-8.51,3.92-8.07,3.48,8.07,3.48,8.07,7.61,1.42,7.39,2.12-6.52,3.77-6.52,3.77-2.61,8.41-3.48,9.11-4.14-8.68-4.14-8.68-5.87-.43-7.17-1.52S554.81,135.35,554.81,135.35Z"/><path id="estrella-3" data-name="estrella" class="cls-2" d="M915.57,112.22s3-8.51,3.91-8.07,3.48,8.07,3.48,8.07,7.61,1.42,7.4,2.13-6.53,3.76-6.53,3.76-2.61,8.41-3.48,9.11-4.13-8.67-4.13-8.67-5.87-.44-7.18-1.53S915.57,112.22,915.57,112.22Z"/><path id="estrella-4" data-name="estrella" class="cls-2" d="M1045.27,257.82s3-8.51,3.92-8.07,3.48,8.07,3.48,8.07,7.61,1.42,7.39,2.12-6.52,3.77-6.52,3.77-2.61,8.4-3.48,9.11-4.13-8.68-4.13-8.68-5.87-.43-7.18-1.52S1045.27,257.82,1045.27,257.82Z"/><path id="estrella-5" data-name="estrella" class="cls-2" d="M405.49,262.13s3-8.51,3.91-8.07,3.48,8.07,3.48,8.07,7.61,1.42,7.4,2.13-6.53,3.76-6.53,3.76-2.61,8.41-3.48,9.11-4.13-8.68-4.13-8.68-5.87-.43-7.17-1.52S405.49,262.13,405.49,262.13Z"/><path id="estrella-6" data-name="estrella" class="cls-2" d="M618.2,631.45s3-8.51,3.91-8.07,3.48,8.07,3.48,8.07,7.61,1.42,7.4,2.13-6.53,3.76-6.53,3.76-2.61,8.41-3.48,9.11-4.13-8.68-4.13-8.68-5.87-.43-7.17-1.52S618.2,631.45,618.2,631.45Z"/><path id="estrella-7" data-name="estrella" class="cls-2" d="M1066.2,574.47s3-8.51,3.91-8.07,3.48,8.07,3.48,8.07,7.61,1.42,7.39,2.13-6.52,3.76-6.52,3.76-2.61,8.41-3.48,9.11-4.13-8.67-4.13-8.67-5.87-.44-7.18-1.53S1066.2,574.47,1066.2,574.47Z"/><path id="estrella-8" data-name="estrella" class="cls-2" d="M1144.61,191.94s2-5.67,2.61-5.38,2.31,5.38,2.31,5.38,5.08.94,4.93,1.42-4.35,2.5-4.35,2.5-1.74,5.61-2.31,6.08-2.76-5.79-2.76-5.79-3.91-.29-4.78-1S1144.61,191.94,1144.61,191.94Z"/><path id="estrella-9" data-name="estrella" class="cls-2" d="M554.78,360.41s3-8.51,3.91-8.07,3.48,8.07,3.48,8.07,7.61,1.42,7.39,2.13S563,366.3,563,366.3s-2.61,8.41-3.48,9.11-4.13-8.68-4.13-8.68-5.87-.43-7.18-1.52S554.78,360.41,554.78,360.41Z"/><path id="estrella-10" data-name="estrella" class="cls-2" d="M217,531.54s3.05-8.51,3.92-8.07,3.48,8.07,3.48,8.07,7.61,1.42,7.39,2.12-6.52,3.77-6.52,3.77-2.61,8.41-3.48,9.11-4.13-8.68-4.13-8.68-5.87-.43-7.18-1.52S217,531.54,217,531.54Z"/><path id="estrella-11" data-name="estrella" class="cls-2" d="M443.53,503.52s3.05-8.51,3.92-8.07,3.48,8.07,3.48,8.07,7.61,1.42,7.39,2.12-6.52,3.77-6.52,3.77-2.61,8.4-3.48,9.11-4.14-8.68-4.14-8.68-5.87-.43-7.17-1.53S443.53,503.52,443.53,503.52Z"/><path id="estrella-12" data-name="estrella" class="cls-2" d="M252.11,100.21s3-8.51,3.92-8.07,3.47,8.07,3.47,8.07,7.62,1.42,7.4,2.13-6.53,3.76-6.53,3.76-2.6,8.41-3.47,9.11-4.14-8.67-4.14-8.67-5.87-.44-7.17-1.53S252.11,100.21,252.11,100.21Z"/><path id="estrella-13" data-name="estrella" class="cls-2" d="M94.77,413.45s3-8.51,3.91-8.07,3.48,8.07,3.48,8.07,7.61,1.42,7.39,2.13-6.52,3.76-6.52,3.76-2.61,8.41-3.48,9.11-4.13-8.68-4.13-8.68-5.87-.43-7.18-1.52S94.77,413.45,94.77,413.45Z"/></g></g></svg>