<svg xmlns="http://www.w3.org/2000/svg" viewBox="0 0 147.13 123.6"><defs><style>.cls-1{fill:#40916c;}.cls-2{fill:#95d5b2;}</style></defs><title>Recurso 55</title><g id="Capa_2" data-name="Capa 2"><g id="hoja_2" data-name="hoja 2"><path class="cls-1" d="M.08,87.24C5.92,65.75,13.66,43.21,29.8,28c1.35-1.28,2.86-2.54,4.56-2.75,4-.48,5.68,4.8,5.85,9.07a85.74,85.74,0,0,1-2,21.55c7.69-18.88,18-38,34.23-49.41,1.44-1,3.16-2,4.68-1.54,2.26.68,2.53,3.92,2.36,6.52A125.83,125.83,0,0,1,75,36.8C82.42,26.42,91.25,17,101.6,10.16S123.85-.69,135.23.1c3.76.27,7.69,1.18,10,4.19s2.41,7.67,1,11.71a30.87,30.87,0,0,1-7,10.67c-8.3,8.95-18.58,15.29-28.71,21.5-4.87,3-9.81,6-15,7.95a30.27,30.27,0,0,1,21.87,3.63c3.42,2.11,6.62,5.57,6.24,10-.41,5.12-5.25,9-9.72,11.28-16.49,8.54-34.74,8.2-52.1,7.67h0a74.12,74.12,0,0,1,26.29,11c3,2.07,6.23,4.86,6.23,9,0,3.47-2.46,6.83-5.4,8.72s-6.32,2.52-9.59,3a123.87,123.87,0,0,1-43.29-1.08,23.68,23.68,0,0,0,4.26,4.17L0,123.6Z"/><path class="cls-2" d="M0,115.62q7.71-7.4,15.51-14.72C29,103,42.49,105.05,56,106.56q5.77.64,11.57,1.15c.91.08.86-1.34,0-1.42-13.75-1.18-27.43-3.08-41.08-5.14l-9.63-1.47q5.1-4.79,10.24-9.52,8.25-7.56,16.64-15A388.14,388.14,0,0,0,88.3,72.93q6.47-.71,12.89-1.63c.9-.13.87-1.54,0-1.41h0A391.2,391.2,0,0,1,55.67,73.7q-5.18.12-10.35.1c10.23-9,20.65-17.67,31.36-26q14.46-11.31,29.64-21.66c.75-.51,0-1.73-.74-1.22a608.1,608.1,0,0,0-52,39.94Q48.65,69,43.79,73.3A306,306,0,0,1,57.43,37.73q2.35-5.15,4.89-10.19c.41-.81-.84-1.5-1.25-.68a310.39,310.39,0,0,0-15.66,37q-1.89,5.43-3.57,10.91a.74.74,0,0,0,0,.25Q28.42,86.83,15.4,99.09a148.32,148.32,0,0,1,7.27-36.41q1.75-5.19,3.87-10.25c.35-.83-.9-1.52-1.25-.67A149.63,149.63,0,0,0,15,89.11c-.51,3.64-.87,7.28-1.11,10.94a.58.58,0,0,0,.08.36q-4.47,4.19-8.91,8.42-2.54,2.4-5.05,4.82Z"/></g></g></svg>