<svg xmlns="http://www.w3.org/2000/svg" viewBox="0 0 123.6 147.12"><defs><style>.cls-1{fill:#40916c;}.cls-2{fill:#95d5b2;}</style></defs><title>Recurso 54</title><g id="Capa_2" data-name="Capa 2"><g id="hoja_1" data-name="hoja 1"><path class="cls-1" d="M36.36.07c21.49,5.84,44,13.59,59.21,29.73,1.28,1.34,2.54,2.86,2.75,4.56.48,4-4.8,5.68-9.07,5.84a85.73,85.73,0,0,1-21.55-2c18.88,7.69,38,18,49.41,34.22,1,1.44,2,3.16,1.54,4.68-.68,2.26-3.92,2.53-6.52,2.36A125.81,125.81,0,0,1,86.8,75c10.38,7.44,19.83,16.28,26.64,26.62s10.85,22.25,10.07,33.64c-.28,3.76-1.19,7.68-4.2,10s-7.67,2.41-11.71,1a31,31,0,0,1-10.67-7c-9-8.3-15.29-18.59-21.5-28.71-3-4.88-6-9.81-8-15a30.28,30.28,0,0,1-3.63,21.87c-2.11,3.42-5.57,6.62-10,6.24-5.12-.41-9-5.25-11.28-9.72-8.54-16.49-8.2-34.74-7.68-52.1h0a73.92,73.92,0,0,1-11,26.29c-2.07,3-4.86,6.22-9,6.23-3.47,0-6.83-2.46-8.72-5.41s-2.52-6.31-3-9.58A123.87,123.87,0,0,1,4.24,36.06,23.74,23.74,0,0,0,.06,40.32L0,0Z"/><path class="cls-2" d="M8,0q7.4,7.71,14.72,15.51C20.62,29,18.55,42.49,17,56q-.66,5.77-1.15,11.57c-.08.91,1.34.86,1.41,0,1.19-13.75,3.09-27.43,5.15-41.08.48-3.21,1-6.42,1.47-9.63q4.78,5.1,9.52,10.24,7.55,8.23,15,16.64A388.14,388.14,0,0,0,50.67,88.3q.7,6.45,1.63,12.89c.13.9,1.54.87,1.41,0h0A391.2,391.2,0,0,1,49.9,55.67q-.12-5.18-.1-10.35c9,10.23,17.67,20.65,26.05,31.36q11.31,14.46,21.66,29.63c.52.76,1.73,0,1.22-.73a609.82,609.82,0,0,0-39.94-52C56,50.28,53.15,47,50.3,43.78A306.07,306.07,0,0,1,85.87,57.43c3.42,1.56,6.82,3.2,10.19,4.89.81.41,1.49-.84.68-1.25a308.2,308.2,0,0,0-37-15.66q-5.41-1.89-10.9-3.58a.78.78,0,0,0-.26,0C40.71,32.87,32.65,24.09,24.51,15.4a148.41,148.41,0,0,1,36.41,7.27q5.19,1.74,10.24,3.87c.84.35,1.52-.9.68-1.25A149.58,149.58,0,0,0,34.48,15c-3.63-.51-7.28-.87-10.93-1.12a.66.66,0,0,0-.36.09Q19,9.51,14.77,5.07L10,0Z"/></g></g></svg>