<svg xmlns="http://www.w3.org/2000/svg" viewBox="0 0 730.4 605.09"><defs><style>.cls-1{fill:#95d5b2;opacity:0.55;}</style></defs><title>Recurso 58</title><g id="Capa_2" data-name="Capa 2"><g id="Nube"><path class="cls-1" d="M729.28,590.76a241.66,241.66,0,0,1-26.73,6.65c-194.19,36.76-242.66-72.42-510-33.13a143.58,143.58,0,0,1-88.29-15.08,178,178,0,0,1-48.45-37.82C14.71,466-.28,394.74,0,334.65.28,275.13,25.32,216,70.28,176.73c30.37-26.51,68.79-43.32,108.62-48.56,39.07-5.14,79.1,7.87,117-7C358.72,96.39,392.92,30.1,459.2,9.4,510.09-6.5,566.75-1.49,614.81,18.9c87,36.94,106.89,83,115.59,124.36Z"/></g></g></svg>